# xmcd CD database file
#
# Track frame offsets:
#	150
#	32255
#	59617
#	101910
#	123065
#	150040
#	180227
#	207062
#	230355
#	253292
#
# Disc length: 3703 seconds
#
# Revision: 0
# Processed by: cddbd v1.5.1PL0 Copyright (c) Steve Scherf et al.
# Submitted via: CDex 1.51
#
DISCID=720e750a
DTITLE=堤 智恵子 - Soaring Feather
DYEAR=1900
DGENRE=Jazz
TTITLE0=Caribbean Evening Wind
TTITLE1=Soaring Feather
TTITLE2=Splash in Darkness
TTITLE3=A Moment Rest
TTITLE4=Run About
TTITLE5=Contra - danca
TTITLE6=Ocean Flight
TTITLE7=Silver Jubilee
TTITLE8=Madrugada
TTITLE9=Through the Summer Glass
EXTD=
EXTT0=
EXTT1=
EXTT2=
EXTT3=
EXTT4=
EXTT5=
EXTT6=
EXTT7=
EXTT8=
EXTT9=
PLAYORDER=
